{"asset":{"version":"2.0","generator":"Blockbench 4.8.3 glTF exporter"},"scenes":[{"nodes":[1],"name":"blockbench_export"}],"scene":0,"nodes":[{"name":"cylinder","mesh":0},{"children":[0]}],"bufferViews":[{"buffer":0,"byteOffset":0,"byteLength":4416,"target":34962,"byteStride":12},{"buffer":0,"byteOffset":4416,"byteLength":4416,"target":34962,"byteStride":12},{"buffer":0,"byteOffset":8832,"byteLength":2944,"target":34962,"byteStride":8},{"buffer":0,"byteOffset":11776,"byteLength":1020,"target":34963}],"buffers":[{"byteLength":12796,"uri":"data:application/octet-stream;base64,"}],"accessors":[{"bufferView":0,"componentType":5126,"count":368,"max":[1.3366096019744873,1.3125,1.4375],"min":[-1.3366096019744873,0,-1.4375],"type":"VEC3"},{"bufferView":1,"componentType":5126,"count":368,"max":[0.9749279022216797,0.9662349224090576,1],"min":[-0.9749279022216797,-1,-1],"type":"VEC3"},{"bufferView":2,"componentType":5126,"count":368,"max":[0.8984375,0.6400472521781921],"min":[0,0],"type":"VEC2"},{"bufferView":3,"componentType":5123,"count":510,"max":[367],"min":[0],"type":"SCALAR"}],"materials":[{"pbrMetallicRoughness":{"metallicFactor":0,"roughnessFactor":1,"baseColorTexture":{"index":0}},"alphaMode":"MASK","alphaCutoff":0.05,"doubleSided":true}],"textures":[{"sampler":0,"source":0,"name":"texture"}],"samplers":[{"magFilter":9728,"minFilter":9728,"wrapS":33071,"wrapT":33071}],"images":[{"mimeType":"image/png","uri":"data:image/png;base64,"}],"meshes":[{"primitives":[{"mode":4,"attributes":{"POSITION":0,"NORMAL":1,"TEXCOORD_0":2},"indices":3,"material":0}]}]}